<?xml version="1.0" standalone="no"?>
<!DOCTYPE svg PUBLIC "-//W3C//DTD SVG 20010904//EN"
 "http://www.w3.org/TR/2001/REC-SVG-20010904/DTD/svg10.dtd">
<svg version="1.0" xmlns="http://www.w3.org/2000/svg"
 width="272.000000pt" height="272.000000pt" viewBox="0 0 272.000000 272.000000"
 preserveAspectRatio="xMidYMid meet">
<metadata>
Created by potrace 1.11, written by Peter Selinger 2001-2013
</metadata>
<g transform="translate(0.000000,272.000000) scale(0.100000,-0.100000)"
fill="#000000" stroke="none">
<path d="M1314 2696 c-43 -19 -64 -53 -64 -102 0 -38 -3 -42 -30 -47 -47 -10
-64 -47 -62 -131 l3 -72 -50 -33 c-101 -65 -197 -197 -260 -361 -49 -125 -91
-382 -107 -655 -5 -98 -12 -134 -35 -193 -42 -106 -81 -180 -170 -321 -81
-127 -107 -186 -95 -216 9 -24 73 -47 110 -40 60 13 135 67 197 142 l27 32 68
-34 c38 -18 101 -43 141 -55 l71 -21 7 -77 c29 -345 122 -537 238 -488 62 26
72 64 71 276 0 102 -3 200 -7 218 l-7 32 53 0 52 0 0 -217 c0 -211 1 -219 24
-259 23 -41 55 -64 88 -64 31 0 80 40 105 87 47 87 88 293 88 449 l0 61 83 31
c46 18 103 46 125 62 l42 30 0 201 0 202 65 111 c139 240 197 401 199 551 0
75 -3 97 -22 132 -27 52 -74 80 -108 64 -30 -13 -46 -45 -104 -213 -27 -78
-52 -143 -54 -146 -7 -7 -11 6 -35 134 -46 246 -168 458 -317 551 l-45 28 6
72 c7 71 6 73 -23 103 -17 16 -37 30 -45 30 -10 0 -17 16 -21 48 -12 93 -108
139 -202 98z m131 -376 c151 -25 277 -133 365 -312 54 -113 78 -201 111 -413
18 -116 22 -199 26 -487 l5 -347 -58 -29 c-297 -149 -742 -146 -1043 8 l-44
22 6 331 c6 338 15 448 58 667 59 304 232 525 436 560 68 11 71 11 138 0z"/>
<path d="M1105 1996 c-28 -9 -41 -19 -43 -34 -4 -25 12 -28 70 -12 44 13 54
25 38 45 -14 17 -12 17 -65 1z"/>
<path d="M1596 2003 c-19 -19 -3 -41 39 -53 47 -13 79 -8 73 13 -7 21 -98 54
-112 40z"/>
<path d="M1108 1839 c-15 -8 -18 -25 -18 -113 0 -87 3 -105 18 -119 24 -22 38
-21 62 3 17 17 20 33 20 108 0 116 -26 154 -82 121z"/>
<path d="M1594 1836 c-17 -13 -19 -27 -19 -116 0 -89 2 -103 19 -116 27 -19
42 -18 66 6 17 17 20 33 20 110 0 77 -3 93 -20 110 -24 24 -39 25 -66 6z"/>
<path d="M1095 1494 c-22 -23 -2 -51 61 -86 144 -79 449 -56 511 39 28 42 -16
83 -51 48 -76 -77 -318 -85 -443 -14 -62 34 -57 33 -78 13z"/>
</g>
</svg>
